# xmcd
#
# Track frame offsets:
#   150
#   9055
#   15197
#   25562
#   35610
#   45000
#   59597
#   72707
#   88135
#   103700
#   114950
#   128647
#   141975
#   155835
#   167750
#   179217
#   197570
#   211705
#   225897
#   240772
#   254895
#
# Disc length: 3730 seconds
#
# Revision: 0
# Processed by: cddbd v1.5.1PL2 Copyright (c) Steve Scherf et al.
# Submitted via: GXTranscoder 2.0.1939
#
DISCID=0e0e9015
DTITLE=Jose  A. Fuentes - Mis primeros exitos
DYEAR=1900
DGENRE=Blues
TTITLE0=Te olvidaste de mi
TTITLE1=Besame.besame
TTITLE2=Lejos de ti 
TTITLE3=Eres mi sueño
TTITLE4=Si ella no esta
TTITLE5=Me contaron
TTITLE6=Nunca pense
TTITLE7=Mi equivocacion
TTITLE8=Con todo mi amor
TTITLE9=Solo , me siento solo
TTITLE10=La mariposa inquieta
TTITLE11=Santo verano
TTITLE12=Mi amigo el viejo mar
TTITLE13=Ven
TTITLE14=Bueno
TTITLE15=Me haces falta
TTITLE16=Cancion del recuerdo
TTITLE17=Tu pueblo es mi pueblo
TTITLE18=Domingo cruel
TTITLE19=Una familia
TTITLE20=Puporri
EXTD=
EXTT0=
EXTT1=
EXTT2=
EXTT3=
EXTT4=
EXTT5=
EXTT6=
EXTT7=
EXTT8=
EXTT9=
EXTT10=
EXTT11=
EXTT12=
EXTT13=
EXTT14=
EXTT15=
EXTT16=
EXTT17=
EXTT18=
EXTT19=
EXTT20=
PLAYORDER=
